<svg width="640" height="420" viewBox="0 0 640 420" fill="none" xmlns="http://www.w3.org/2000/svg">
  <rect width="640" height="420" rx="32" fill="#141414"/>
  <rect x="32" y="32" width="576" height="356" rx="24" fill="url(#paint0_linear)"/>
  <path d="M120 276C120 250 166 220 220 212C242 208 288 206 312 206C357 206 398 214 420 220C446 228 488 260 488 284C488 304 470 318 446 320L194 320C150 320 120 302 120 276Z" fill="white" fill-opacity="0.85"/>
  <path d="M194 260C206 260 216 270 216 282C216 294 206 304 194 304C182 304 172 294 172 282C172 270 182 260 194 260Z" fill="#1F1F1F"/>
  <path d="M412 260C424 260 434 270 434 282C434 294 424 304 412 304C400 304 390 294 390 282C390 270 400 260 412 260Z" fill="#1F1F1F"/>
  <path d="M168 238C164 214 190 190 218 182C252 172 292 168 316 168C358 168 392 178 420 188C444 196 464 214 468 238L168 238Z" fill="#EDE7DA"/>
  <path d="M220 188L252 150C256 144 262 140 270 138C298 132 344 132 372 138C380 140 386 144 390 150L420 188H220Z" fill="#C58A2B"/>
  <path d="M230 192L254 162H378L402 192H230Z" fill="#141414" fill-opacity="0.7"/>
  <path d="M148 268H132C128 268 124 266 122 264C118 260 118 254 122 250C126 246 132 246 136 250L148 262V268Z" fill="#C58A2B"/>
  <path d="M512 268H528C532 268 536 266 538 264C542 260 542 254 538 250C534 246 528 246 524 250L512 262V268Z" fill="#C58A2B"/>
  <text x="56" y="96" fill="white" font-family="Playfair Display, Georgia, serif" font-size="36" font-weight="600">Classic Car Rentals Malaysia</text>
  <text x="56" y="134" fill="white" opacity="0.7" font-family="Manrope, Arial, sans-serif" font-size="18">Timeless arrivals for weddings, productions, and prestige events</text>
  <defs>
    <linearGradient id="paint0_linear" x1="64" y1="72" x2="544" y2="368" gradientUnits="userSpaceOnUse">
      <stop stop-color="#1F1F1F"/>
      <stop offset="1" stop-color="#2C2C2C"/>
    </linearGradient>
  </defs>
</svg>
